<svg width="25" height="25" viewBox="0 0 25 25" fill="none" xmlns="http://www.w3.org/2000/svg">
<mask id="path-1-inside-1_1131_611" fill="white">
<path fill-rule="evenodd" clip-rule="evenodd" d="M7.9183 1.28205C8.27644 0.525641 9.04774 0 9.94182 0H15.0582C15.951 0 16.7223 0.525641 17.0817 1.28205C17.9553 1.28974 18.6371 1.32949 19.2459 1.56795C19.9728 1.85291 20.6049 2.33719 21.0699 2.96538C21.5394 3.59744 21.7594 4.41026 22.0625 5.52692L22.1098 5.70128L22.8645 8.47949C23.3677 8.73395 23.8088 9.09638 24.1564 9.54103C24.952 10.5628 25.0927 11.7795 24.952 13.1744C24.8138 14.5282 24.3892 16.2333 23.8571 18.3679L23.8225 18.5026C23.4861 19.8526 23.2124 20.9487 22.8888 21.8038C22.5486 22.6962 22.1188 23.4269 21.4089 23.9821C20.7003 24.5372 19.888 24.7769 18.9428 24.8923C18.0359 25 16.909 25 15.5212 25H9.47879C8.09097 25 6.96282 25 6.05722 24.891C5.11069 24.7782 4.29975 24.5372 3.58985 23.9808C2.88123 23.4269 2.45146 22.6962 2.11122 21.8038C1.78633 20.9487 1.51388 19.8526 1.17748 18.5026L1.14295 18.3679C0.610843 16.2333 0.184905 14.5282 0.0480421 13.1756C-0.0926581 11.7782 0.0480419 10.5628 0.842358 9.54103C1.20434 9.07692 1.63795 8.73333 2.13424 8.47949L2.88891 5.70128L2.93751 5.52692C3.24066 4.41026 3.46066 3.59744 3.93009 2.9641C4.39533 2.33639 5.02742 1.85256 5.75407 1.56795C6.36292 1.32949 7.0434 1.28846 7.9183 1.28205ZM7.91958 3.20897C7.07282 3.21795 6.73386 3.25 6.45246 3.36026C6.06101 3.51369 5.72058 3.7745 5.47012 4.11282C5.245 4.41667 5.11197 4.84103 4.74103 6.20897L4.28823 7.87051C5.61593 7.69231 7.32992 7.69231 9.45833 7.69231H15.5404C17.6701 7.69231 19.3841 7.69231 20.7105 7.87051L20.259 6.20769C19.8868 4.83974 19.755 4.41538 19.5299 4.11154C19.2794 3.77322 18.939 3.51241 18.5476 3.35897C18.2662 3.24872 17.9259 3.21667 17.0792 3.20769C16.8974 3.59059 16.611 3.91401 16.2533 4.14046C15.8956 4.36692 15.4813 4.48713 15.0582 4.48718H9.94182C9.51876 4.48713 9.10436 4.36692 8.74668 4.14046C8.38899 3.91401 8.10265 3.59059 7.92086 3.20769M9.94182 1.92308C9.85701 1.92308 9.77568 1.95685 9.71571 2.01695C9.65574 2.07706 9.62205 2.15858 9.62205 2.24359C9.62205 2.3286 9.65574 2.41012 9.71571 2.47023C9.77568 2.53033 9.85701 2.5641 9.94182 2.5641H15.0582C15.143 2.5641 15.2243 2.53033 15.2843 2.47023C15.3443 2.41012 15.378 2.3286 15.378 2.24359C15.378 2.15858 15.3443 2.07706 15.2843 2.01695C15.2243 1.95685 15.143 1.92308 15.0582 1.92308H9.94182ZM4.44172 9.78974C3.27775 9.95897 2.71367 10.2667 2.3568 10.7256C1.99866 11.1833 1.83877 11.8051 1.95773 12.9795C2.07924 14.1795 2.46936 15.7487 3.02449 17.9795C3.38008 19.4 3.62566 20.3846 3.90706 21.1205C4.17567 21.8308 4.44045 22.2064 4.77301 22.4667C5.10429 22.7256 5.53151 22.891 6.28618 22.9821C7.06642 23.0756 8.07691 23.0769 9.54019 23.0769H15.4624C16.9244 23.0769 17.9374 23.0756 18.7164 22.9821C19.4711 22.8923 19.8983 22.7256 20.2296 22.4667C20.5621 22.2064 20.8256 21.8308 21.0968 21.1205C21.3756 20.3846 21.6225 19.4 21.9768 17.9795C22.5332 15.7487 22.9233 14.1795 23.0436 12.9795C23.1638 11.8051 23.0026 11.1821 22.6458 10.7244C22.2889 10.2667 21.7248 9.95897 20.5596 9.78974C19.37 9.61795 17.7558 9.61539 15.4624 9.61539H9.54019C7.24677 9.61539 5.63256 9.61795 4.443 9.78974"/>
</mask>
<path fill-rule="evenodd" clip-rule="evenodd" d="M7.9183 1.28205C8.27644 0.525641 9.04774 0 9.94182 0H15.0582C15.951 0 16.7223 0.525641 17.0817 1.28205C17.9553 1.28974 18.6371 1.32949 19.2459 1.56795C19.9728 1.85291 20.6049 2.33719 21.0699 2.96538C21.5394 3.59744 21.7594 4.41026 22.0625 5.52692L22.1098 5.70128L22.8645 8.47949C23.3677 8.73395 23.8088 9.09638 24.1564 9.54103C24.952 10.5628 25.0927 11.7795 24.952 13.1744C24.8138 14.5282 24.3892 16.2333 23.8571 18.3679L23.8225 18.5026C23.4861 19.8526 23.2124 20.9487 22.8888 21.8038C22.5486 22.6962 22.1188 23.4269 21.4089 23.9821C20.7003 24.5372 19.888 24.7769 18.9428 24.8923C18.0359 25 16.909 25 15.5212 25H9.47879C8.09097 25 6.96282 25 6.05722 24.891C5.11069 24.7782 4.29975 24.5372 3.58985 23.9808C2.88123 23.4269 2.45146 22.6962 2.11122 21.8038C1.78633 20.9487 1.51388 19.8526 1.17748 18.5026L1.14295 18.3679C0.610843 16.2333 0.184905 14.5282 0.0480421 13.1756C-0.0926581 11.7782 0.0480419 10.5628 0.842358 9.54103C1.20434 9.07692 1.63795 8.73333 2.13424 8.47949L2.88891 5.70128L2.93751 5.52692C3.24066 4.41026 3.46066 3.59744 3.93009 2.9641C4.39533 2.33639 5.02742 1.85256 5.75407 1.56795C6.36292 1.32949 7.0434 1.28846 7.9183 1.28205ZM7.91958 3.20897C7.07282 3.21795 6.73386 3.25 6.45246 3.36026C6.06101 3.51369 5.72058 3.7745 5.47012 4.11282C5.245 4.41667 5.11197 4.84103 4.74103 6.20897L4.28823 7.87051C5.61593 7.69231 7.32992 7.69231 9.45833 7.69231H15.5404C17.6701 7.69231 19.3841 7.69231 20.7105 7.87051L20.259 6.20769C19.8868 4.83974 19.755 4.41538 19.5299 4.11154C19.2794 3.77322 18.939 3.51241 18.5476 3.35897C18.2662 3.24872 17.9259 3.21667 17.0792 3.20769C16.8974 3.59059 16.611 3.91401 16.2533 4.14046C15.8956 4.36692 15.4813 4.48713 15.0582 4.48718H9.94182C9.51876 4.48713 9.10436 4.36692 8.74668 4.14046C8.38899 3.91401 8.10265 3.59059 7.92086 3.20769M9.94182 1.92308C9.85701 1.92308 9.77568 1.95685 9.71571 2.01695C9.65574 2.07706 9.62205 2.15858 9.62205 2.24359C9.62205 2.3286 9.65574 2.41012 9.71571 2.47023C9.77568 2.53033 9.85701 2.5641 9.94182 2.5641H15.0582C15.143 2.5641 15.2243 2.53033 15.2843 2.47023C15.3443 2.41012 15.378 2.3286 15.378 2.24359C15.378 2.15858 15.3443 2.07706 15.2843 2.01695C15.2243 1.95685 15.143 1.92308 15.0582 1.92308H9.94182ZM4.44172 9.78974C3.27775 9.95897 2.71367 10.2667 2.3568 10.7256C1.99866 11.1833 1.83877 11.8051 1.95773 12.9795C2.07924 14.1795 2.46936 15.7487 3.02449 17.9795C3.38008 19.4 3.62566 20.3846 3.90706 21.1205C4.17567 21.8308 4.44045 22.2064 4.77301 22.4667C5.10429 22.7256 5.53151 22.891 6.28618 22.9821C7.06642 23.0756 8.07691 23.0769 9.54019 23.0769H15.4624C16.9244 23.0769 17.9374 23.0756 18.7164 22.9821C19.4711 22.8923 19.8983 22.7256 20.2296 22.4667C20.5621 22.2064 20.8256 21.8308 21.0968 21.1205C21.3756 20.3846 21.6225 19.4 21.9768 17.9795C22.5332 15.7487 22.9233 14.1795 23.0436 12.9795C23.1638 11.8051 23.0026 11.1821 22.6458 10.7244C22.2889 10.2667 21.7248 9.95897 20.5596 9.78974C19.37 9.61795 17.7558 9.61539 15.4624 9.61539H9.54019C7.24677 9.61539 5.63256 9.61795 4.443 9.78974" fill="#84BB93"/>
<path d="M7.9183 1.28205L7.92562 2.28202L8.55344 2.27742L8.82211 1.70999L7.9183 1.28205ZM17.0817 1.28205L16.1785 1.71123L16.4471 2.2765L17.0729 2.28201L17.0817 1.28205ZM19.2459 1.56795L19.611 0.636949L19.6106 0.636819L19.2459 1.56795ZM21.0699 2.96538L20.2662 3.5604L20.2671 3.56163L21.0699 2.96538ZM22.0625 5.52692L23.0276 5.26497L23.0276 5.26493L22.0625 5.52692ZM22.1098 5.70128L21.1448 5.96324L21.1448 5.96342L22.1098 5.70128ZM22.8645 8.47949L21.8995 8.74163L22.0161 9.17105L22.4132 9.37187L22.8645 8.47949ZM24.1564 9.54103L24.9454 8.92667L24.9442 8.92511L24.1564 9.54103ZM24.952 13.1744L25.9468 13.2759L25.9469 13.2747L24.952 13.1744ZM23.8571 18.3679L24.8257 18.6165L24.8274 18.6098L23.8571 18.3679ZM23.8225 18.5026L22.8539 18.2541L22.8522 18.2608L23.8225 18.5026ZM22.8888 21.8038L23.8232 22.1601L23.8241 22.1578L22.8888 21.8038ZM21.4089 23.9821L20.7929 23.1943L20.7922 23.1948L21.4089 23.9821ZM18.9428 24.8923L19.0607 25.8853L19.064 25.8849L18.9428 24.8923ZM6.05722 24.891L6.17669 23.8982L6.17557 23.8981L6.05722 24.891ZM3.58985 23.9808L4.20673 23.1937L4.20566 23.1929L3.58985 23.9808ZM2.11122 21.8038L1.17641 22.159L1.17684 22.1601L2.11122 21.8038ZM1.17748 18.5026L2.14783 18.2608L2.14611 18.2541L1.17748 18.5026ZM1.14295 18.3679L0.172614 18.6098L0.174314 18.6165L1.14295 18.3679ZM0.0480421 13.1756L-0.946928 13.2758L-0.946877 13.2763L0.0480421 13.1756ZM0.842358 9.54103L0.053841 8.92601L0.0528514 8.92728L0.842358 9.54103ZM2.13424 8.47949L2.58962 9.36979L2.98334 9.1684L3.09927 8.74163L2.13424 8.47949ZM2.88891 5.70128L1.92561 5.43275L1.92388 5.43914L2.88891 5.70128ZM2.93751 5.52692L3.90081 5.79546L3.90258 5.78891L2.93751 5.52692ZM3.93009 2.9641L4.73347 3.55957L4.73348 3.55955L3.93009 2.9641ZM5.75407 1.56795L5.38939 0.636819L5.38938 0.636822L5.75407 1.56795ZM6.45246 3.36026L6.08765 2.42917L6.08752 2.42923L6.45246 3.36026ZM5.47012 4.11282L6.27361 4.70813L6.27384 4.70782L5.47012 4.11282ZM4.74103 6.20897L5.70585 6.4719L5.70618 6.47069L4.74103 6.20897ZM4.28823 7.87051L3.32342 7.60758L2.92701 9.06219L4.42126 8.86163L4.28823 7.87051ZM20.7105 7.87051L20.5773 8.86161L22.0703 9.06219L21.6756 7.60846L20.7105 7.87051ZM20.259 6.20769L21.224 5.94564L21.2239 5.94514L20.259 6.20769ZM19.5299 4.11154L18.7262 4.70654L18.7264 4.70685L19.5299 4.11154ZM18.5476 3.35897L18.9125 2.42794L18.9124 2.42789L18.5476 3.35897ZM17.0792 3.20769L17.0898 2.20775L16.4502 2.20097L16.1758 2.77879L17.0792 3.20769ZM15.0582 4.48718V5.48718H15.0583L15.0582 4.48718ZM9.94182 4.48718L9.94171 5.48718H9.94182V4.48718ZM2.3568 10.7256L3.14435 11.3419L3.14625 11.3395L2.3568 10.7256ZM1.95773 12.9795L2.95264 12.8787L2.95264 12.8787L1.95773 12.9795ZM3.02449 17.9795L2.05408 18.221L2.05442 18.2223L3.02449 17.9795ZM3.90706 21.1205L4.84242 20.7668L4.8411 20.7633L3.90706 21.1205ZM4.77301 22.4667L4.15672 23.2542L4.15713 23.2545L4.77301 22.4667ZM6.28618 22.9821L6.16643 23.9749L6.16708 23.9749L6.28618 22.9821ZM18.7164 22.9821L18.5983 21.989L18.5971 21.9892L18.7164 22.9821ZM20.2296 22.4667L20.8454 23.2545L20.8459 23.2542L20.2296 22.4667ZM21.0968 21.1205L22.031 21.4772L22.0319 21.4748L21.0968 21.1205ZM23.0436 12.9795L22.0488 12.8776L22.0485 12.8798L23.0436 12.9795ZM20.5596 9.78974L20.7033 8.80013L20.7025 8.80001L20.5596 9.78974ZM8.82211 1.70999C9.02154 1.28878 9.44963 1 9.94182 1V-1C8.64584 -1 7.53135 -0.237496 7.01449 0.854115L8.82211 1.70999ZM9.94182 1H15.0582V-1H9.94182V1ZM15.0582 1C15.5485 1 15.9776 1.28836 16.1785 1.71123L17.9849 0.852868C17.467 -0.237081 16.3535 -1 15.0582 -1V1ZM17.0729 2.28201C17.951 2.28974 18.4628 2.33517 18.8813 2.49908L19.6106 0.636819C18.8114 0.323805 17.9596 0.289743 17.0905 0.28209L17.0729 2.28201ZM18.8809 2.49895C19.4326 2.71526 19.9128 3.083 20.2662 3.5604L21.8736 2.37037C21.2969 1.59139 20.5129 0.990566 19.611 0.636949L18.8809 2.49895ZM20.2671 3.56163C20.6001 4.01 20.7783 4.61342 21.0974 5.78891L23.0276 5.26493C22.7404 4.20709 22.4786 3.18487 21.8727 2.36914L20.2671 3.56163ZM21.0974 5.78888L21.1448 5.96324L23.0749 5.43933L23.0276 5.26497L21.0974 5.78888ZM21.1448 5.96342L21.8995 8.74163L23.8295 8.21735L23.0749 5.43914L21.1448 5.96342ZM22.4132 9.37187C22.7851 9.55995 23.1114 9.82794 23.3686 10.1569L24.9442 8.92511C24.5062 8.36482 23.9502 7.90795 23.3158 7.58711L22.4132 9.37187ZM23.3673 10.1554C23.9347 10.884 24.0863 11.7924 23.957 13.074L25.9469 13.2747C26.0991 11.7666 25.9693 10.2416 24.9454 8.92667L23.3673 10.1554ZM23.9571 13.0729C23.8279 14.339 23.4259 15.9634 22.8868 18.1261L24.8274 18.6098C25.3525 16.5033 25.7997 14.7174 25.9468 13.2759L23.9571 13.0729ZM22.8884 18.1194L22.8539 18.2541L24.7912 18.7511L24.8257 18.6165L22.8884 18.1194ZM22.8522 18.2608C22.5106 19.6316 22.2516 20.6622 21.9535 21.4499L23.8241 22.1578C24.1732 21.2353 24.4617 20.0735 24.7929 18.7444L22.8522 18.2608ZM21.9544 21.4476C21.6494 22.2475 21.3055 22.7934 20.7929 23.1943L22.0249 24.7698C22.932 24.0604 23.4477 23.1448 23.8232 22.1601L21.9544 21.4476ZM20.7922 23.1948C20.2815 23.5949 19.6701 23.7961 18.8216 23.8997L19.064 25.8849C20.106 25.7577 21.1191 25.4794 22.0256 24.7693L20.7922 23.1948ZM18.8249 23.8993C17.99 23.9984 16.9311 24 15.5212 24V26C16.887 26 18.0818 26.0016 19.0607 25.8853L18.8249 23.8993ZM15.5212 24H9.47879V26H15.5212V24ZM9.47879 24C8.06854 24 7.00928 23.9984 6.17669 23.8982L5.93775 25.8839C6.91635 26.0016 8.11341 26 9.47879 26V24ZM6.17557 23.8981C5.32962 23.7972 4.71932 23.5955 4.20673 23.1937L2.97296 24.7678C3.88017 25.4789 4.89176 25.7592 5.93886 25.884L6.17557 23.8981ZM4.20566 23.1929C3.6946 22.7934 3.35074 22.2478 3.0456 21.4476L1.17684 22.1601C1.55218 23.1445 2.06786 24.0604 2.97404 24.7687L4.20566 23.1929ZM3.04602 21.4487C2.74711 20.6619 2.48974 19.6329 2.14781 18.2608L0.207153 18.7444C0.538028 20.0722 0.825548 21.2355 1.17641 22.159L3.04602 21.4487ZM2.14611 18.2541L2.11158 18.1194L0.174314 18.6165L0.208849 18.7511L2.14611 18.2541ZM2.11325 18.1261C1.57391 15.9624 1.17088 14.3391 1.04296 13.075L-0.946877 13.2763C-0.801069 14.7173 -0.352223 16.5043 0.172637 18.6098L2.11325 18.1261ZM1.04301 13.0755C0.913693 11.7911 1.06532 10.8836 1.63187 10.1548L0.0528514 8.92728C-0.969232 10.2421 -1.09901 11.7653 -0.946927 13.2758L1.04301 13.0755ZM1.63087 10.156C1.89728 9.81448 2.21425 9.56178 2.58962 9.36979L1.67886 7.58919C1.06166 7.90488 0.511407 8.33936 0.0538421 8.92601L1.63087 10.156ZM3.09927 8.74163L3.85394 5.96342L1.92388 5.43914L1.16921 8.21735L3.09927 8.74163ZM3.85218 5.96981L3.90078 5.79545L1.97424 5.25839L1.92563 5.43275L3.85218 5.96981ZM3.90258 5.78891C4.2216 4.61376 4.39989 4.00962 4.73347 3.55957L3.12671 2.36864C2.52143 3.18525 2.25971 4.20675 1.97244 5.26493L3.90258 5.78891ZM4.73348 3.55955C5.08705 3.08251 5.56718 2.71512 6.11877 2.49908L5.38938 0.636822C4.48765 0.990004 3.70361 1.59026 3.12669 2.36866L4.73348 3.55955ZM6.11876 2.49908C6.53761 2.33503 7.04916 2.28845 7.92562 2.28202L7.91097 0.282078C7.03764 0.288477 6.18823 0.323944 5.38939 0.636819L6.11876 2.49908ZM7.90898 2.20903C7.09441 2.21766 6.5681 2.24093 6.08765 2.42917L6.81727 4.29134C6.89962 4.25907 7.05123 4.21823 7.93017 4.20892L7.90898 2.20903ZM6.08752 2.42923C5.52093 2.65132 5.0285 3.02868 4.66639 3.51782L6.27384 4.70782C6.41265 4.52031 6.6011 4.37607 6.8174 4.29129L6.08752 2.42923ZM4.66662 3.51751C4.46747 3.7863 4.3378 4.07649 4.21407 4.43823C4.09389 4.78959 3.95948 5.2702 3.77589 5.94726L5.70618 6.47069C5.89352 5.7798 6.01109 5.36426 6.10644 5.08549C6.19824 4.8171 6.24764 4.74319 6.27361 4.70813L4.66662 3.51751ZM3.77622 5.94605L3.32342 7.60758L5.25305 8.13344L5.70585 6.4719L3.77622 5.94605ZM4.42126 8.86163C5.66732 8.69438 7.30319 8.69231 9.45833 8.69231V6.69231C7.35664 6.69231 5.56454 6.69024 4.15521 6.8794L4.42126 8.86163ZM9.45833 8.69231H15.5404V6.69231H9.45833V8.69231ZM15.5404 8.69231C17.6969 8.69231 19.3327 8.69438 20.5773 8.86161L20.8437 6.87942C19.4355 6.69023 17.6433 6.69231 15.5404 6.69231V8.69231ZM21.6756 7.60846L21.224 5.94564L19.2939 6.46974L19.7454 8.13256L21.6756 7.60846ZM21.2239 5.94514C21.0398 5.26857 20.9054 4.78819 20.7856 4.43738C20.6623 4.07635 20.533 3.78561 20.3334 3.51623L18.7264 4.70685C18.7519 4.74132 18.801 4.81467 18.8929 5.08378C18.9883 5.36309 19.1059 5.77886 19.2941 6.47024L21.2239 5.94514ZM20.3336 3.51654C19.9715 3.0274 19.4791 2.65003 18.9125 2.42794L18.1826 4.29001C18.3989 4.37479 18.5874 4.51903 18.7262 4.70654L20.3336 3.51654ZM18.9124 2.42789C18.4318 2.23961 17.904 2.21638 17.0898 2.20775L17.0686 4.20764C17.9478 4.21695 18.1005 4.25783 18.1827 4.29006L18.9124 2.42789ZM16.1758 2.77879C16.0749 2.99122 15.9163 3.17031 15.7184 3.29556L16.7883 4.98537C17.3058 4.65771 17.7198 4.18996 17.9825 3.6366L16.1758 2.77879ZM15.7184 3.29556C15.5206 3.42079 15.2917 3.48715 15.0581 3.48718L15.0583 5.48718C15.6709 5.48711 16.2707 5.31304 16.7883 4.98537L15.7184 3.29556ZM15.0582 3.48718H9.94182V5.48718H15.0582V3.48718ZM9.94193 3.48718C9.70835 3.48715 9.4794 3.42079 9.28159 3.29556L8.21176 4.98537C8.72933 5.31304 9.32916 5.48711 9.94171 5.48718L9.94193 3.48718ZM9.28159 3.29556C9.08376 3.17031 8.92507 2.99122 8.82421 2.77879L7.01751 3.6366C7.28024 4.18996 7.69422 4.65771 8.21176 4.98537L9.28159 3.29556ZM9.94182 0.923077C9.59105 0.923077 9.25511 1.06276 9.00778 1.31066L10.4236 2.72324C10.2962 2.85093 10.123 2.92308 9.94182 2.92308V0.923077ZM9.00778 1.31066C8.76053 1.55849 8.62205 1.89411 8.62205 2.24359H10.622C10.622 2.42305 10.5509 2.59564 10.4236 2.72324L9.00778 1.31066ZM8.62205 2.24359C8.62205 2.59306 8.76053 2.92869 9.00778 3.17652L10.4236 1.76394C10.5509 1.89154 10.622 2.06413 10.622 2.24359H8.62205ZM9.00778 3.17652C9.25511 3.42442 9.59105 3.5641 9.94182 3.5641V1.5641C10.123 1.5641 10.2962 1.63625 10.4236 1.76394L9.00778 3.17652ZM9.94182 3.5641H15.0582V1.5641H9.94182V3.5641ZM15.0582 3.5641C15.409 3.5641 15.7449 3.42442 15.9922 3.17652L14.5764 1.76394C14.7038 1.63625 14.877 1.5641 15.0582 1.5641V3.5641ZM15.9922 3.17652C16.2395 2.92869 16.378 2.59306 16.378 2.24359H14.378C14.378 2.06413 14.4491 1.89154 14.5764 1.76394L15.9922 3.17652ZM16.378 2.24359C16.378 1.89411 16.2395 1.55849 15.9922 1.31066L14.5764 2.72324C14.4491 2.59564 14.378 2.42305 14.378 2.24359H16.378ZM15.9922 1.31066C15.7449 1.06276 15.409 0.923077 15.0582 0.923077V2.92308C14.877 2.92308 14.7038 2.85093 14.5764 2.72324L15.9922 1.31066ZM15.0582 0.923077H9.94182V2.92308H15.0582V0.923077ZM4.29785 8.80015C3.01729 8.98633 2.15201 9.35988 1.56736 10.1118L3.14625 11.3395C3.27533 11.1735 3.53821 10.9316 4.5856 10.7793L4.29785 8.80015ZM1.56926 10.1094C0.981667 10.8603 0.83224 11.7912 0.962818 13.0803L2.95264 12.8787C2.8453 11.8191 3.01565 11.5064 3.14435 11.3419L1.56926 10.1094ZM0.962815 13.0802C1.09333 14.3691 1.50697 16.0224 2.05409 18.221L3.99489 17.738C3.43176 15.475 3.06515 13.9899 2.95264 12.8787L0.962815 13.0802ZM2.05442 18.2223C2.40332 19.6161 2.66489 20.6719 2.97302 21.4777L4.8411 20.7633C4.58644 20.0974 4.35683 19.1839 3.99456 17.7367L2.05442 18.2223ZM2.97172 21.4742C3.27656 22.2803 3.62778 22.8403 4.15672 23.2542L5.3893 21.6791C5.25311 21.5726 5.07479 21.3812 4.84241 20.7668L2.97172 21.4742ZM4.15713 23.2545C4.68547 23.6675 5.31272 23.8719 6.16643 23.9749L6.40593 21.9892C5.75031 21.9102 5.52311 21.7838 5.38889 21.6788L4.15713 23.2545ZM6.16708 23.9749C7.02079 24.0773 8.10212 24.0769 9.54019 24.0769V22.0769C8.05169 22.0769 7.11205 22.0739 6.40527 21.9892L6.16708 23.9749ZM9.54019 24.0769H15.4624V22.0769H9.54019V24.0769ZM15.4624 24.0769C16.899 24.0769 17.9831 24.0773 18.8357 23.9749L18.5971 21.9892C17.8917 22.0739 16.9498 22.0769 15.4624 22.0769V24.0769ZM18.8345 23.9751C19.6911 23.8732 20.3179 23.6669 20.8454 23.2545L19.6137 21.6788C19.4787 21.7844 19.251 21.9114 18.5983 21.989L18.8345 23.9751ZM20.8459 23.2542C21.3753 22.8399 21.7246 22.2797 22.031 21.4772L20.1626 20.7638C19.9266 21.3818 19.749 21.5729 19.6133 21.6791L20.8459 23.2542ZM22.0319 21.4748C22.3366 20.6707 22.5988 19.6178 22.9471 18.2215L21.0065 17.7375C20.6462 19.1822 20.4146 20.0986 20.1617 20.7662L22.0319 21.4748ZM22.9471 18.2215C23.4955 16.0227 23.9094 14.3689 24.0386 13.0792L22.0485 12.8798C21.9373 13.99 21.5709 15.4747 21.0065 17.7375L22.9471 18.2215ZM24.0384 13.0813C24.1705 11.7903 24.0192 10.8595 23.4344 10.1095L21.8572 11.3392C21.9861 11.5046 22.1571 11.8199 22.0488 12.8776L24.0384 13.0813ZM23.4344 10.1095C22.8497 9.35964 21.985 8.98627 20.7033 8.80013L20.4158 10.7794C21.4646 10.9317 21.7281 11.1737 21.8572 11.3392L23.4344 10.1095ZM20.7025 8.80001C19.4246 8.61545 17.7239 8.61539 15.4624 8.61539V10.6154C17.7877 10.6154 19.3155 10.6204 20.4166 10.7795L20.7025 8.80001ZM15.4624 8.61539H9.54019V10.6154H15.4624V8.61539ZM9.54019 8.61539C7.2787 8.61539 5.57801 8.61545 4.30007 8.80001L4.58594 10.7795C5.68711 10.6204 7.21485 10.6154 9.54019 10.6154V8.61539Z" fill="#84BB93" mask="url(#path-1-inside-1_1131_611)"/>
<path d="M12.1429 11.4297V20.0011V11.4297ZM16.4286 15.7154H7.85718H16.4286Z" fill="#84BB93"/>
<path d="M12.1429 11.4297V20.0011M16.4286 15.7154H7.85718" stroke="#84BB93" stroke-width="2" stroke-linecap="round"/>
</svg>
