<svg width="24" height="24" viewBox="0 0 24 24" fill="none" xmlns="http://www.w3.org/2000/svg">
<mask id="path-1-outside-1_1131_1285" maskUnits="userSpaceOnUse" x="-0.251465" y="-0.250915" width="24" height="24" fill="black">
<rect fill="white" x="-0.251465" y="-0.250915" width="24" height="24"/>
<path d="M11.8492 0.785242L0.971059 5.65951C0.90524 5.68888 0.849261 5.73657 0.809805 5.79689C0.770348 5.85721 0.749078 5.9276 0.748535 5.99968V8.24901C0.748535 8.45594 0.915783 8.62461 1.12272 8.62461H2.24951V10.5026C2.24951 10.7095 2.41534 10.8782 2.62369 10.8782H2.99929V18.7516H2.62369C2.52432 18.752 2.42915 18.7917 2.35902 18.8621C2.28889 18.9325 2.24951 19.0278 2.24951 19.1272V21.0009H1.12413C1.07481 21.0011 1.026 21.011 0.980505 21.03C0.935007 21.0491 0.893706 21.0769 0.85896 21.1119C0.824214 21.1469 0.796704 21.1884 0.778 21.2341C0.759297 21.2797 0.749766 21.3286 0.749952 21.3779V22.8761C0.749952 23.083 0.9172 23.2517 1.12413 23.2517H22.8748C22.9744 23.2517 23.0699 23.2121 23.1404 23.1417C23.2108 23.0712 23.2504 22.9757 23.2504 22.8761V21.3779C23.2506 21.3285 23.241 21.2795 23.2222 21.2338C23.2034 21.188 23.1758 21.1465 23.1409 21.1114C23.106 21.0764 23.0645 21.0486 23.0189 21.0296C22.9732 21.0107 22.9242 21.0009 22.8748 21.0009H21.7508V19.1272C21.7508 19.0278 21.7115 18.9325 21.6413 18.8621C21.5712 18.7917 21.476 18.752 21.3767 18.7516H20.9996V10.8768H21.3767C21.5836 10.8768 21.7508 10.7067 21.7508 10.5012V8.62603H22.8748C22.9744 8.62603 23.0699 8.58645 23.1404 8.51602C23.2108 8.44558 23.2504 8.35004 23.2504 8.25043V5.99968C23.25 5.92776 23.2289 5.85747 23.1897 5.79717C23.1505 5.73687 23.0948 5.68909 23.0293 5.65951L12.1525 0.783825C12.105 0.760959 12.0529 0.749085 12.0002 0.749085C11.9474 0.749085 11.8953 0.760959 11.8478 0.783825L11.8492 0.785242ZM12.0009 1.53644L22.5006 6.24204V7.87625H1.50115V6.24346L12.0009 1.53644ZM12.0009 3.37474C10.9691 3.37474 10.1271 4.2209 10.1271 5.25273C10.1271 6.28315 10.9691 7.12647 12.0009 7.12647C13.0313 7.12647 13.8746 6.28315 13.8746 5.25273C13.8746 4.2209 13.0313 3.37474 12.0009 3.37474ZM12.0009 4.12594C12.1489 4.12537 12.2955 4.15415 12.4323 4.21062C12.5691 4.26708 12.6934 4.3501 12.7979 4.45488C12.9024 4.55966 12.9851 4.68413 13.0413 4.82108C13.0974 4.95802 13.1258 5.10474 13.1248 5.25273C13.1256 5.40048 13.097 5.5469 13.0408 5.68353C12.9846 5.82015 12.9018 5.94426 12.7972 6.04867C12.6927 6.15308 12.5685 6.2357 12.4318 6.29177C12.2951 6.34783 12.1486 6.37621 12.0009 6.37527C11.8531 6.37621 11.7067 6.34783 11.57 6.29177C11.4333 6.2357 11.3091 6.15308 11.2045 6.04867C11.1 5.94426 11.0172 5.82015 10.961 5.68353C10.9047 5.5469 10.8762 5.40048 10.8769 5.25273C10.876 5.10474 10.9044 4.95802 10.9605 4.82108C11.0166 4.68413 11.0993 4.55966 11.2039 4.45488C11.3084 4.3501 11.4326 4.26708 11.5694 4.21062C11.7062 4.15415 11.8529 4.12537 12.0009 4.12594ZM3.00071 8.62603H5.9984V10.1284H3.00071V8.62603ZM6.74818 8.62603H9.75155V10.5026C9.75155 10.7109 9.92021 10.8796 10.1286 10.8782H10.5013V18.7516H10.1286C10.0791 18.7514 10.0301 18.761 9.98439 18.7798C9.93866 18.7986 9.89709 18.8262 9.86206 18.8611C9.82703 18.896 9.79924 18.9375 9.78027 18.9831C9.76131 19.0288 9.75155 19.0777 9.75155 19.1272V21.0009H6.74676V19.1272C6.74677 19.0281 6.70758 18.9329 6.63776 18.8626C6.56793 18.7922 6.47312 18.7523 6.374 18.7516H5.99698V10.8768H6.374C6.58093 10.8768 6.74818 10.7067 6.74676 10.5012L6.74818 8.62603ZM10.4999 8.62603H13.5004V10.1284H10.4999V8.62603ZM14.2516 8.62603H17.2493V10.5026C17.2493 10.7109 17.4166 10.8796 17.6249 10.8782H17.9991V18.7516H17.6249C17.5253 18.7516 17.4298 18.7912 17.3593 18.8616C17.2889 18.932 17.2493 19.0276 17.2493 19.1272V21.0009H14.2516V19.1272C14.2516 19.0777 14.2419 19.0288 14.2229 18.9831C14.2039 18.9375 14.1762 18.896 14.1411 18.8611C14.1061 18.8262 14.0645 18.7986 14.0188 18.7798C13.9731 18.761 13.9241 18.7514 13.8746 18.7516H13.5019V10.8768H13.8746C13.9241 10.877 13.9731 10.8674 14.0188 10.8486C14.0645 10.8298 14.1061 10.8022 14.1411 10.7673C14.1762 10.7324 14.2039 10.6909 14.2229 10.6452C14.2419 10.5996 14.2516 10.5506 14.2516 10.5012V8.62603ZM17.9991 8.62603H20.9996V10.1284H18.0005L17.9991 8.62603ZM3.75048 10.8768H5.25288V18.7502H3.75048V10.8768ZM11.2511 10.8768H12.7507V18.7502H11.2511V10.8768ZM18.7489 10.8768H20.2499V18.7502H18.7503L18.7489 10.8768ZM3.00212 19.4999H5.9984V20.9995H3.00071L3.00212 19.4999ZM10.4999 19.4999H13.5019V20.9995H10.4999V19.4999ZM17.9991 19.4999H20.9996V20.9995H18.0005L17.9991 19.4999ZM1.50115 21.7507H22.5006V22.5019H1.50115V21.7507Z"/>
</mask>
<path d="M11.8492 0.785242L0.971059 5.65951C0.90524 5.68888 0.849261 5.73657 0.809805 5.79689C0.770348 5.85721 0.749078 5.9276 0.748535 5.99968V8.24901C0.748535 8.45594 0.915783 8.62461 1.12272 8.62461H2.24951V10.5026C2.24951 10.7095 2.41534 10.8782 2.62369 10.8782H2.99929V18.7516H2.62369C2.52432 18.752 2.42915 18.7917 2.35902 18.8621C2.28889 18.9325 2.24951 19.0278 2.24951 19.1272V21.0009H1.12413C1.07481 21.0011 1.026 21.011 0.980505 21.03C0.935007 21.0491 0.893706 21.0769 0.85896 21.1119C0.824214 21.1469 0.796704 21.1884 0.778 21.2341C0.759297 21.2797 0.749766 21.3286 0.749952 21.3779V22.8761C0.749952 23.083 0.9172 23.2517 1.12413 23.2517H22.8748C22.9744 23.2517 23.0699 23.2121 23.1404 23.1417C23.2108 23.0712 23.2504 22.9757 23.2504 22.8761V21.3779C23.2506 21.3285 23.241 21.2795 23.2222 21.2338C23.2034 21.188 23.1758 21.1465 23.1409 21.1114C23.106 21.0764 23.0645 21.0486 23.0189 21.0296C22.9732 21.0107 22.9242 21.0009 22.8748 21.0009H21.7508V19.1272C21.7508 19.0278 21.7115 18.9325 21.6413 18.8621C21.5712 18.7917 21.476 18.752 21.3767 18.7516H20.9996V10.8768H21.3767C21.5836 10.8768 21.7508 10.7067 21.7508 10.5012V8.62603H22.8748C22.9744 8.62603 23.0699 8.58645 23.1404 8.51602C23.2108 8.44558 23.2504 8.35004 23.2504 8.25043V5.99968C23.25 5.92776 23.2289 5.85747 23.1897 5.79717C23.1505 5.73687 23.0948 5.68909 23.0293 5.65951L12.1525 0.783825C12.105 0.760959 12.0529 0.749085 12.0002 0.749085C11.9474 0.749085 11.8953 0.760959 11.8478 0.783825L11.8492 0.785242ZM12.0009 1.53644L22.5006 6.24204V7.87625H1.50115V6.24346L12.0009 1.53644ZM12.0009 3.37474C10.9691 3.37474 10.1271 4.2209 10.1271 5.25273C10.1271 6.28315 10.9691 7.12647 12.0009 7.12647C13.0313 7.12647 13.8746 6.28315 13.8746 5.25273C13.8746 4.2209 13.0313 3.37474 12.0009 3.37474ZM12.0009 4.12594C12.1489 4.12537 12.2955 4.15415 12.4323 4.21062C12.5691 4.26708 12.6934 4.3501 12.7979 4.45488C12.9024 4.55966 12.9851 4.68413 13.0413 4.82108C13.0974 4.95802 13.1258 5.10474 13.1248 5.25273C13.1256 5.40048 13.097 5.5469 13.0408 5.68353C12.9846 5.82015 12.9018 5.94426 12.7972 6.04867C12.6927 6.15308 12.5685 6.2357 12.4318 6.29177C12.2951 6.34783 12.1486 6.37621 12.0009 6.37527C11.8531 6.37621 11.7067 6.34783 11.57 6.29177C11.4333 6.2357 11.3091 6.15308 11.2045 6.04867C11.1 5.94426 11.0172 5.82015 10.961 5.68353C10.9047 5.5469 10.8762 5.40048 10.8769 5.25273C10.876 5.10474 10.9044 4.95802 10.9605 4.82108C11.0166 4.68413 11.0993 4.55966 11.2039 4.45488C11.3084 4.3501 11.4326 4.26708 11.5694 4.21062C11.7062 4.15415 11.8529 4.12537 12.0009 4.12594ZM3.00071 8.62603H5.9984V10.1284H3.00071V8.62603ZM6.74818 8.62603H9.75155V10.5026C9.75155 10.7109 9.92021 10.8796 10.1286 10.8782H10.5013V18.7516H10.1286C10.0791 18.7514 10.0301 18.761 9.98439 18.7798C9.93866 18.7986 9.89709 18.8262 9.86206 18.8611C9.82703 18.896 9.79924 18.9375 9.78027 18.9831C9.76131 19.0288 9.75155 19.0777 9.75155 19.1272V21.0009H6.74676V19.1272C6.74677 19.0281 6.70758 18.9329 6.63776 18.8626C6.56793 18.7922 6.47312 18.7523 6.374 18.7516H5.99698V10.8768H6.374C6.58093 10.8768 6.74818 10.7067 6.74676 10.5012L6.74818 8.62603ZM10.4999 8.62603H13.5004V10.1284H10.4999V8.62603ZM14.2516 8.62603H17.2493V10.5026C17.2493 10.7109 17.4166 10.8796 17.6249 10.8782H17.9991V18.7516H17.6249C17.5253 18.7516 17.4298 18.7912 17.3593 18.8616C17.2889 18.932 17.2493 19.0276 17.2493 19.1272V21.0009H14.2516V19.1272C14.2516 19.0777 14.2419 19.0288 14.2229 18.9831C14.2039 18.9375 14.1762 18.896 14.1411 18.8611C14.1061 18.8262 14.0645 18.7986 14.0188 18.7798C13.9731 18.761 13.9241 18.7514 13.8746 18.7516H13.5019V10.8768H13.8746C13.9241 10.877 13.9731 10.8674 14.0188 10.8486C14.0645 10.8298 14.1061 10.8022 14.1411 10.7673C14.1762 10.7324 14.2039 10.6909 14.2229 10.6452C14.2419 10.5996 14.2516 10.5506 14.2516 10.5012V8.62603ZM17.9991 8.62603H20.9996V10.1284H18.0005L17.9991 8.62603ZM3.75048 10.8768H5.25288V18.7502H3.75048V10.8768ZM11.2511 10.8768H12.7507V18.7502H11.2511V10.8768ZM18.7489 10.8768H20.2499V18.7502H18.7503L18.7489 10.8768ZM3.00212 19.4999H5.9984V20.9995H3.00071L3.00212 19.4999ZM10.4999 19.4999H13.5019V20.9995H10.4999V19.4999ZM17.9991 19.4999H20.9996V20.9995H18.0005L17.9991 19.4999ZM1.50115 21.7507H22.5006V22.5019H1.50115V21.7507Z" fill="#131313"/>
<path d="M11.8492 0.785242L0.971059 5.65951C0.90524 5.68888 0.849261 5.73657 0.809805 5.79689C0.770348 5.85721 0.749078 5.9276 0.748535 5.99968V8.24901C0.748535 8.45594 0.915783 8.62461 1.12272 8.62461H2.24951V10.5026C2.24951 10.7095 2.41534 10.8782 2.62369 10.8782H2.99929V18.7516H2.62369C2.52432 18.752 2.42915 18.7917 2.35902 18.8621C2.28889 18.9325 2.24951 19.0278 2.24951 19.1272V21.0009H1.12413C1.07481 21.0011 1.026 21.011 0.980505 21.03C0.935007 21.0491 0.893706 21.0769 0.85896 21.1119C0.824214 21.1469 0.796704 21.1884 0.778 21.2341C0.759297 21.2797 0.749766 21.3286 0.749952 21.3779V22.8761C0.749952 23.083 0.9172 23.2517 1.12413 23.2517H22.8748C22.9744 23.2517 23.0699 23.2121 23.1404 23.1417C23.2108 23.0712 23.2504 22.9757 23.2504 22.8761V21.3779C23.2506 21.3285 23.241 21.2795 23.2222 21.2338C23.2034 21.188 23.1758 21.1465 23.1409 21.1114C23.106 21.0764 23.0645 21.0486 23.0189 21.0296C22.9732 21.0107 22.9242 21.0009 22.8748 21.0009H21.7508V19.1272C21.7508 19.0278 21.7115 18.9325 21.6413 18.8621C21.5712 18.7917 21.476 18.752 21.3767 18.7516H20.9996V10.8768H21.3767C21.5836 10.8768 21.7508 10.7067 21.7508 10.5012V8.62603H22.8748C22.9744 8.62603 23.0699 8.58645 23.1404 8.51602C23.2108 8.44558 23.2504 8.35004 23.2504 8.25043V5.99968C23.25 5.92776 23.2289 5.85747 23.1897 5.79717C23.1505 5.73687 23.0948 5.68909 23.0293 5.65951L12.1525 0.783825C12.105 0.760959 12.0529 0.749085 12.0002 0.749085C11.9474 0.749085 11.8953 0.760959 11.8478 0.783825L11.8492 0.785242ZM12.0009 1.53644L22.5006 6.24204V7.87625H1.50115V6.24346L12.0009 1.53644ZM12.0009 3.37474C10.9691 3.37474 10.1271 4.2209 10.1271 5.25273C10.1271 6.28315 10.9691 7.12647 12.0009 7.12647C13.0313 7.12647 13.8746 6.28315 13.8746 5.25273C13.8746 4.2209 13.0313 3.37474 12.0009 3.37474ZM12.0009 4.12594C12.1489 4.12537 12.2955 4.15415 12.4323 4.21062C12.5691 4.26708 12.6934 4.3501 12.7979 4.45488C12.9024 4.55966 12.9851 4.68413 13.0413 4.82108C13.0974 4.95802 13.1258 5.10474 13.1248 5.25273C13.1256 5.40048 13.097 5.5469 13.0408 5.68353C12.9846 5.82015 12.9018 5.94426 12.7972 6.04867C12.6927 6.15308 12.5685 6.2357 12.4318 6.29177C12.2951 6.34783 12.1486 6.37621 12.0009 6.37527C11.8531 6.37621 11.7067 6.34783 11.57 6.29177C11.4333 6.2357 11.3091 6.15308 11.2045 6.04867C11.1 5.94426 11.0172 5.82015 10.961 5.68353C10.9047 5.5469 10.8762 5.40048 10.8769 5.25273C10.876 5.10474 10.9044 4.95802 10.9605 4.82108C11.0166 4.68413 11.0993 4.55966 11.2039 4.45488C11.3084 4.3501 11.4326 4.26708 11.5694 4.21062C11.7062 4.15415 11.8529 4.12537 12.0009 4.12594ZM3.00071 8.62603H5.9984V10.1284H3.00071V8.62603ZM6.74818 8.62603H9.75155V10.5026C9.75155 10.7109 9.92021 10.8796 10.1286 10.8782H10.5013V18.7516H10.1286C10.0791 18.7514 10.0301 18.761 9.98439 18.7798C9.93866 18.7986 9.89709 18.8262 9.86206 18.8611C9.82703 18.896 9.79924 18.9375 9.78027 18.9831C9.76131 19.0288 9.75155 19.0777 9.75155 19.1272V21.0009H6.74676V19.1272C6.74677 19.0281 6.70758 18.9329 6.63776 18.8626C6.56793 18.7922 6.47312 18.7523 6.374 18.7516H5.99698V10.8768H6.374C6.58093 10.8768 6.74818 10.7067 6.74676 10.5012L6.74818 8.62603ZM10.4999 8.62603H13.5004V10.1284H10.4999V8.62603ZM14.2516 8.62603H17.2493V10.5026C17.2493 10.7109 17.4166 10.8796 17.6249 10.8782H17.9991V18.7516H17.6249C17.5253 18.7516 17.4298 18.7912 17.3593 18.8616C17.2889 18.932 17.2493 19.0276 17.2493 19.1272V21.0009H14.2516V19.1272C14.2516 19.0777 14.2419 19.0288 14.2229 18.9831C14.2039 18.9375 14.1762 18.896 14.1411 18.8611C14.1061 18.8262 14.0645 18.7986 14.0188 18.7798C13.9731 18.761 13.9241 18.7514 13.8746 18.7516H13.5019V10.8768H13.8746C13.9241 10.877 13.9731 10.8674 14.0188 10.8486C14.0645 10.8298 14.1061 10.8022 14.1411 10.7673C14.1762 10.7324 14.2039 10.6909 14.2229 10.6452C14.2419 10.5996 14.2516 10.5506 14.2516 10.5012V8.62603ZM17.9991 8.62603H20.9996V10.1284H18.0005L17.9991 8.62603ZM3.75048 10.8768H5.25288V18.7502H3.75048V10.8768ZM11.2511 10.8768H12.7507V18.7502H11.2511V10.8768ZM18.7489 10.8768H20.2499V18.7502H18.7503L18.7489 10.8768ZM3.00212 19.4999H5.9984V20.9995H3.00071L3.00212 19.4999ZM10.4999 19.4999H13.5019V20.9995H10.4999V19.4999ZM17.9991 19.4999H20.9996V20.9995H18.0005L17.9991 19.4999ZM1.50115 21.7507H22.5006V22.5019H1.50115V21.7507Z" stroke="#131313" stroke-width="0.2" mask="url(#path-1-outside-1_1131_1285)"/>
</svg>
