<svg width="21" height="21" viewBox="0 0 21 21" fill="none" xmlns="http://www.w3.org/2000/svg">
<path d="M1.49044 3.3733C1.80744 2.8493 3.55044 0.943296 4.79344 1.0013C5.16544 1.0323 5.49344 1.2573 5.76144 1.5183C6.37444 2.1173 8.12944 4.3813 8.22944 4.8583C8.47144 6.0263 7.07944 6.7003 7.50544 7.8783C8.59144 10.5373 10.4634 12.4083 13.1234 13.4943C14.3004 13.9213 14.9744 12.5283 16.1434 12.7713C16.6184 12.8713 18.8834 14.6263 19.4834 15.2393C19.7434 15.5053 19.9684 15.8353 19.9994 16.2063C20.0454 17.5163 18.0224 19.2833 17.6284 19.5093C16.6984 20.1753 15.4834 20.1633 14.0044 19.4753C9.87444 17.7573 3.27444 11.2823 1.52444 6.9973C0.854443 5.5253 0.808443 4.3033 1.49044 3.3733Z" stroke="#84BB93" stroke-width="1.42" stroke-linecap="round" stroke-linejoin="round"/>
</svg>
