<svg width="20" height="16" viewBox="0 0 20 16" fill="none" xmlns="http://www.w3.org/2000/svg">
<path d="M16.6525 0H3.34748C2.46 0.00106307 1.60917 0.354085 0.981629 0.981629C0.354085 1.60917 0.00106307 2.46 0 3.34748V12.0614C0.00106307 12.9489 0.354085 13.7997 0.981629 14.4272C1.60917 15.0548 2.46 15.4078 3.34748 15.4089H16.6525C17.54 15.4078 18.3908 15.0548 19.0184 14.4272C19.6459 13.7997 19.9989 12.9489 20 12.0614V3.34748C19.9989 2.46 19.6459 1.60917 19.0184 0.981629C18.3908 0.354085 17.54 0.00106307 16.6525 0ZM3.34748 1.33899H16.6525C17.185 1.33956 17.6956 1.55135 18.0721 1.92789C18.4487 2.30443 18.6604 2.81497 18.661 3.34748V4.22559H1.33899V3.34748C1.33956 2.81497 1.55135 2.30443 1.92789 1.92789C2.30443 1.55135 2.81497 1.33956 3.34748 1.33899ZM16.6525 14.0699H3.34748C2.81497 14.0693 2.30443 13.8575 1.92789 13.481C1.55135 13.1044 1.33956 12.5939 1.33899 12.0614V5.56459H18.661V12.0614C18.6604 12.5939 18.4487 13.1044 18.0721 13.481C17.6956 13.8575 17.185 14.0693 16.6525 14.0699ZM16.831 10.9388C16.831 11.1163 16.7605 11.2866 16.6349 11.4122C16.5094 11.5377 16.3391 11.6083 16.1615 11.6083H14.5563C14.3788 11.6083 14.2085 11.5377 14.0829 11.4122C13.9574 11.2866 13.8868 11.1163 13.8868 10.9388C13.8868 10.7612 13.9574 10.5909 14.0829 10.4654C14.2085 10.3398 14.3788 10.2693 14.5563 10.2693H16.1615C16.3391 10.2693 16.5094 10.3398 16.6349 10.4654C16.7605 10.5909 16.831 10.7612 16.831 10.9388Z" fill="#131313"/>
</svg>
