<svg width="12" height="12" viewBox="0 0 12 12" fill="none" xmlns="http://www.w3.org/2000/svg">
<path fill-rule="evenodd" clip-rule="evenodd" d="M5.96797 1.18069e-07L6.83721 2.51139e-07C7.0684 2.51139e-07 7.25581 0.187416 7.25581 0.418605C7.25581 0.649794 7.0684 0.83721 6.83721 0.83721H6C4.67262 0.83721 3.71919 0.838099 2.99362 0.935649C2.2801 1.03158 1.84993 1.21403 1.53198 1.53198C1.21403 1.84993 1.03158 2.2801 0.935649 2.99362C0.838099 3.71919 0.83721 4.67262 0.83721 6C0.83721 7.32738 0.838099 8.28081 0.935649 9.00638C1.03158 9.7199 1.21403 10.1501 1.53198 10.468C1.84993 10.786 2.2801 10.9684 2.99362 11.0644C3.71919 11.1619 4.67262 11.1628 6 11.1628C7.32738 11.1628 8.28081 11.1619 9.00638 11.0644C9.7199 10.9684 10.1501 10.786 10.468 10.468C10.786 10.1501 10.9684 9.7199 11.0644 9.00638C11.1619 8.28081 11.1628 7.32738 11.1628 6V5.16279C11.1628 4.9316 11.3502 4.74419 11.5814 4.74419C11.8126 4.74419 12 4.9316 12 5.16279V6.03202C12 7.32043 12 8.33012 11.8941 9.11793C11.7857 9.9243 11.5594 10.5606 11.06 11.06C10.5606 11.5594 9.9243 11.7857 9.11793 11.8941C8.33012 12 7.32043 12 6.03202 12H5.96798C4.67957 12 3.66988 12 2.88207 11.8941C2.0757 11.7857 1.43941 11.5594 0.939983 11.06C0.440554 10.5606 0.214318 9.9243 0.105905 9.11793C-1.27582e-05 8.33013 -7.06776e-06 7.32043 1.18069e-07 6.03203V5.96798C-7.06776e-06 4.67957 -1.27582e-05 3.66988 0.105905 2.88207C0.214318 2.0757 0.440554 1.43941 0.939983 0.939983C1.43941 0.440554 2.0757 0.214318 2.88207 0.105905C3.66987 -1.27582e-05 4.67957 -7.06776e-06 5.96797 1.18069e-07ZM8.66262 0.572604C9.42609 -0.190868 10.6639 -0.190868 11.4274 0.572604C12.1909 1.33608 12.1909 2.57391 11.4274 3.33738L7.71683 7.04795C7.5096 7.2552 7.37979 7.38503 7.23493 7.49802C7.06431 7.6311 6.8797 7.7452 6.68436 7.83829C6.51852 7.91733 6.34434 7.97537 6.0663 8.06803L4.44517 8.60841C4.14587 8.70817 3.81589 8.63028 3.59281 8.40719C3.36972 8.18411 3.29183 7.85413 3.39159 7.55483L3.93196 5.93371C4.02463 5.65566 4.08267 5.48148 4.16171 5.31564C4.2548 5.1203 4.3689 4.93569 4.50198 4.76507C4.61497 4.62021 4.7448 4.49039 4.95206 4.28316L8.66262 0.572604ZM10.8354 1.1646C10.3989 0.728079 9.69114 0.728079 9.25462 1.1646L9.04441 1.37481C9.05708 1.42831 9.07481 1.49206 9.09948 1.56316C9.17946 1.79371 9.33082 2.09733 9.61675 2.38325C9.90267 2.66918 10.2063 2.82054 10.4368 2.90052C10.5079 2.92519 10.5717 2.94292 10.6252 2.95559L10.8354 2.74538C11.2719 2.30886 11.2719 1.60112 10.8354 1.1646ZM9.96566 3.61512C9.67768 3.49127 9.34223 3.29272 9.02475 2.97525C8.70728 2.65778 8.50873 2.32232 8.38488 2.03434L5.56326 4.85596C5.33079 5.08843 5.23961 5.18063 5.16213 5.27997C5.06644 5.40265 4.98441 5.53538 4.91748 5.67582C4.86327 5.78956 4.82159 5.91233 4.71762 6.22423L4.47656 6.9474L5.0526 7.52344L5.77577 7.28238C6.08767 7.17841 6.21044 7.13673 6.32418 7.08252C6.46462 7.01559 6.59735 6.93356 6.72003 6.83787C6.81937 6.76038 6.91157 6.66921 7.14404 6.43674L9.96566 3.61512Z" fill="#4B4C50"/>
</svg>
