<svg width="24" height="24" viewBox="0 0 24 24" fill="none" xmlns="http://www.w3.org/2000/svg">
<path fill-rule="evenodd" clip-rule="evenodd" d="M21.4549 5.41632C21.5499 5.56052 21.5922 5.7331 21.5747 5.9049C21.5573 6.07671 21.481 6.23721 21.3589 6.35932L12.1659 15.5513C12.0718 15.6453 11.9545 15.7126 11.8259 15.7463L7.99689 16.7463C7.87032 16.7793 7.73732 16.7787 7.61109 16.7444C7.48485 16.7101 7.36978 16.6434 7.27729 16.5509C7.18479 16.4584 7.1181 16.3434 7.08382 16.2171C7.04955 16.0909 7.04888 15.9579 7.08189 15.8313L8.08189 12.0033C8.1118 11.8887 8.16679 11.7821 8.24289 11.6913L17.4699 2.47032C17.6105 2.32987 17.8011 2.25098 17.9999 2.25098C18.1986 2.25098 18.3893 2.32987 18.5299 2.47032L21.3589 5.29832C21.3938 5.33516 21.4259 5.3746 21.4549 5.41632ZM19.7679 5.82832L17.9999 4.06132L9.48189 12.5793L8.85689 14.9723L11.2499 14.3473L19.7679 5.82832Z" fill="white"/>
<path d="M19.641 17.16C19.9143 14.824 20.0016 12.4699 19.902 10.12C19.8997 10.0646 19.9088 10.0094 19.929 9.95772C19.9491 9.90608 19.9798 9.85918 20.019 9.82002L21.003 8.83602C21.0299 8.80898 21.064 8.79027 21.1013 8.78216C21.1385 8.77405 21.1774 8.77687 21.2131 8.79028C21.2488 8.80369 21.2798 8.82713 21.3025 8.85777C21.3252 8.88841 21.3386 8.92496 21.341 8.96302C21.5257 11.7543 21.4554 14.5565 21.131 17.335C20.895 19.357 19.271 20.942 17.258 21.167C13.7633 21.5538 10.2367 21.5538 6.74201 21.167C4.73001 20.942 3.10501 19.357 2.86901 17.335C2.45512 13.7904 2.45512 10.2096 2.86901 6.66502C3.10501 4.64302 4.72901 3.05802 6.74201 2.83302C9.39446 2.54006 12.0667 2.46882 14.731 2.62002C14.7691 2.62275 14.8057 2.63636 14.8363 2.65923C14.867 2.68209 14.8904 2.71326 14.9039 2.74904C14.9173 2.78481 14.9203 2.8237 14.9123 2.86109C14.9044 2.89848 14.8859 2.93281 14.859 2.96002L13.866 3.95202C13.8272 3.99086 13.7808 4.0213 13.7297 4.04143C13.6786 4.06156 13.6239 4.07095 13.569 4.06902C11.3458 3.99287 9.11993 4.07809 6.90901 4.32402C6.26295 4.39552 5.65986 4.68274 5.19717 5.13927C4.73447 5.59579 4.43919 6.19497 4.35901 6.84002C3.95787 10.2683 3.95787 13.7317 4.35901 17.16C4.43919 17.8051 4.73447 18.4042 5.19717 18.8608C5.65986 19.3173 6.26295 19.6045 6.90901 19.676C10.264 20.051 13.736 20.051 17.092 19.676C17.7381 19.6045 18.3412 19.3173 18.8039 18.8608C19.2666 18.4042 19.5608 17.8051 19.641 17.16Z" fill="white"/>
</svg>
