<svg width="17" height="18" viewBox="0 0 17 18" fill="none" xmlns="http://www.w3.org/2000/svg">
<path fill-rule="evenodd" clip-rule="evenodd" d="M8.49958 0C6.76711 0 5.1056 0.683594 3.88057 1.9004C2.65553 3.11721 1.96731 4.76755 1.96731 6.48837V7.07777C1.96726 7.66121 1.79335 8.23159 1.46748 8.71702L0.500708 10.1595C-0.623686 11.834 0.23436 14.1095 2.18898 14.6386C2.82563 14.8111 3.46734 14.957 4.11411 15.0765L4.11579 15.0807C4.76312 16.7986 6.49523 18 8.49958 18C10.5039 18 12.236 16.7986 12.8842 15.0807L12.8859 15.0765C13.5333 14.9563 14.1755 14.8103 14.811 14.6386C16.7656 14.1095 17.6237 11.834 16.4993 10.1595L15.5317 8.71702C15.2058 8.23159 15.0319 7.66121 15.0319 7.07777V6.48837C15.0319 4.76755 14.3436 3.11721 13.1186 1.9004C11.8936 0.683594 10.232 0 8.49958 0ZM11.3451 15.31C9.45452 15.5341 7.5438 15.5341 5.65319 15.31C6.25248 16.1648 7.29511 16.7442 8.49958 16.7442C9.70405 16.7442 10.7458 16.1648 11.3451 15.31ZM3.23162 6.48837C3.23162 5.10061 3.78663 3.76969 4.77457 2.78839C5.7625 1.8071 7.10243 1.25581 8.49958 1.25581C9.89673 1.25581 11.2367 1.8071 12.2246 2.78839C13.2125 3.76969 13.7675 5.10061 13.7675 6.48837V7.07777C13.7675 7.90912 14.0153 8.72205 14.4798 9.41358L15.4474 10.8561C15.5973 11.0791 15.6917 11.3344 15.7228 11.6008C15.7538 11.8672 15.7206 12.1371 15.6259 12.3883C15.5312 12.6395 15.3778 12.8646 15.1782 13.0453C14.9786 13.2259 14.7386 13.3568 14.4781 13.4272C10.5636 14.4875 6.4347 14.4875 2.52023 13.4272C2.25981 13.3568 2.01998 13.2259 1.8205 13.0453C1.62102 12.8647 1.46762 12.6396 1.37294 12.3886C1.27827 12.1376 1.24503 11.8678 1.27598 11.6014C1.30693 11.3351 1.40117 11.0799 1.55093 10.8569L2.52023 9.41358C2.98427 8.72178 3.23179 7.90905 3.23162 7.07777V6.48837Z" fill="#878787"/>
</svg>
