<svg width="20" height="20" viewBox="0 0 20 20" fill="none" xmlns="http://www.w3.org/2000/svg">
<path d="M1.88674 14.455C1.02874 11.023 0.599738 9.308 1.50074 8.154C2.40174 7 4.17074 7 7.70774 7H12.3377C15.8757 7 17.6437 7 18.5447 8.154C19.4457 9.308 19.0167 11.024 18.1587 14.455C17.6127 16.638 17.3407 17.729 16.5267 18.365C15.7127 19 14.5877 19 12.3377 19H7.70774C5.45774 19 4.33274 19 3.51874 18.365C2.70474 17.729 2.43174 16.638 1.88674 14.455Z" stroke="#84BB93" stroke-width="1.5"/>
<path opacity="0.5" d="M17.5227 7.5L16.8127 4.895C16.5387 3.89 16.4017 3.388 16.1207 3.009C15.8405 2.63246 15.46 2.3424 15.0227 2.172C14.5827 2 14.0627 2 13.0227 2M2.52271 7.5L3.23271 4.895C3.50671 3.89 3.64371 3.388 3.92471 3.009C4.20488 2.63246 4.58539 2.3424 5.02271 2.172C5.46271 2 5.98271 2 7.02271 2" stroke="#84BB93" stroke-width="1.5"/>
<path d="M7.02271 2C7.02271 1.73478 7.12806 1.48043 7.3156 1.29289C7.50313 1.10536 7.75749 1 8.02271 1H12.0227C12.2879 1 12.5423 1.10536 12.7298 1.29289C12.9173 1.48043 13.0227 1.73478 13.0227 2C13.0227 2.26522 12.9173 2.51957 12.7298 2.70711C12.5423 2.89464 12.2879 3 12.0227 3H8.02271C7.75749 3 7.50313 2.89464 7.3156 2.70711C7.12806 2.51957 7.02271 2.26522 7.02271 2Z" stroke="#84BB93" stroke-width="1.5"/>
</svg>
