<svg width="14" height="14" viewBox="0 0 14 14" fill="none" xmlns="http://www.w3.org/2000/svg">
<path d="M4.66869 0.939696C6.42293 -0.939698 6.24263 1.47848 9.32899 0.939696C9.21021 2.22091 8.28748 4.67303 6.9999 4.67303C5.71233 4.67303 4.55839 2.22091 4.66869 0.939696Z" fill="#84BB93"/>
<path d="M8.81781 3.28613H5.18205C3.15841 4.87704 1.71387 8.22219 1.71387 10.5025V10.5407C1.72659 12.3501 3.24962 13.7883 5.06114 13.7883H8.94084C10.7502 13.7883 12.2733 12.3501 12.286 10.5386V10.5004C12.286 8.22219 10.8414 4.87704 8.81781 3.28613Z" fill="#84BB93"/>
<path d="M9.08734 3.64395H4.9128C4.85987 3.64395 4.80746 3.63353 4.75856 3.61327C4.70966 3.59302 4.66524 3.56333 4.62781 3.52591C4.59039 3.48848 4.5607 3.44405 4.54044 3.39515C4.52019 3.34626 4.50977 3.29385 4.50977 3.24092C4.50977 3.18799 4.52019 3.13559 4.54044 3.08669C4.5607 3.03779 4.59039 2.99336 4.62781 2.95594C4.66524 2.91851 4.70966 2.88882 4.75856 2.86857C4.80746 2.84832 4.85987 2.83789 4.9128 2.83789H9.08946C9.31219 2.83789 9.49249 3.01819 9.49249 3.24092C9.49249 3.46153 9.31219 3.64395 9.08734 3.64395Z" fill="#FFCC33"/>
<path d="M6.83661 11.0303V10.5339C6.58843 10.5021 6.38691 10.447 6.22994 10.3664C6.07509 10.2858 5.93934 10.1564 5.82691 9.97818C5.71449 9.8 5.64873 9.58151 5.62964 9.32484L6.13024 9.23151C6.16843 9.49878 6.23631 9.69394 6.33388 9.81909C6.47388 9.99515 6.64146 10.0948 6.83661 10.1139V8.53151C6.63297 8.49333 6.42297 8.41484 6.21085 8.29394C6.05176 8.20484 5.93085 8.08394 5.846 7.92697C5.76115 7.77 5.71661 7.59181 5.71661 7.39454C5.71661 7.0403 5.84176 6.75606 6.09206 6.53545C6.25964 6.38909 6.50782 6.29787 6.83661 6.26394V6.02636H7.12934V6.26394C7.41782 6.29151 7.64691 6.37636 7.81661 6.51848C8.03297 6.69878 8.16449 6.94697 8.20903 7.26091L7.6957 7.33727C7.666 7.14212 7.60449 6.99151 7.51115 6.88757C7.41782 6.78363 7.29055 6.71575 7.12934 6.68181V8.11363C7.37964 8.17515 7.54509 8.22606 7.6257 8.26C7.78055 8.32787 7.9057 8.4106 8.00327 8.50818C8.10085 8.60575 8.17509 8.72242 8.22812 8.85606C8.28115 8.98969 8.30661 9.13606 8.30661 9.29303C8.30661 9.63666 8.19631 9.92515 7.97782 10.1542C7.75934 10.3833 7.47509 10.5085 7.12721 10.5233V11.0303H6.83661ZM6.83661 6.67969C6.64358 6.70939 6.49085 6.78575 6.38055 6.91091C6.26812 7.03606 6.21297 7.18454 6.21297 7.35636C6.21297 7.52606 6.25964 7.66818 6.35509 7.7806C6.45055 7.89303 6.60964 7.98636 6.83661 8.05424V6.67969ZM7.12721 10.1118C7.32024 10.0885 7.47934 10.0036 7.60661 9.86151C7.73176 9.71727 7.7954 9.54121 7.7954 9.32909C7.7954 9.14878 7.75085 9.00454 7.66176 8.89424C7.57267 8.78394 7.39449 8.68636 7.12721 8.59939V10.1118Z" fill="#F5F5F5"/>
</svg>
