<svg width="18" height="21" viewBox="0 0 18 21" fill="none" xmlns="http://www.w3.org/2000/svg">
<path fill-rule="evenodd" clip-rule="evenodd" d="M1.23901 9.39128C1.25342 5.15069 4.70278 1.7247 8.94336 1.73906C13.1839 1.75351 16.6099 5.20287 16.5956 9.44345V9.53041C16.5434 12.2869 15.0042 14.8348 13.1173 16.8261C12.0381 17.9467 10.833 18.9388 9.52597 19.7826C9.17648 20.0849 8.65807 20.0849 8.30858 19.7826C6.36008 18.5143 4.64995 16.9131 3.2564 15.0521C2.01436 13.4294 1.30918 11.4597 1.23901 9.41737V9.39128Z" stroke="#131313" stroke-width="1.5" stroke-linecap="round" stroke-linejoin="round"/>
<path d="M8.91681 12C10.276 12 11.3778 10.8982 11.3778 9.539C11.3778 8.17983 10.276 7.078 8.91681 7.078C7.55764 7.078 6.45581 8.17983 6.45581 9.539C6.45581 10.8982 7.55764 12 8.91681 12Z" stroke="#131313" stroke-width="1.5" stroke-linecap="round" stroke-linejoin="round"/>
</svg>
