<svg width="24" height="24" viewBox="0 0 24 24" fill="none" xmlns="http://www.w3.org/2000/svg">
<path fill-rule="evenodd" clip-rule="evenodd" d="M4.5 10.5391C4.51419 6.3612 7.91252 2.98589 12.0904 3.00004C16.2682 3.01428 19.6435 6.41261 19.6294 10.5905V10.6761C19.5779 13.3919 18.0616 15.902 16.2025 17.8638C15.1393 18.9679 13.9521 19.9453 12.6644 20.7766C12.32 21.0745 11.8093 21.0745 11.465 20.7766C9.5453 19.5271 7.86047 17.9496 6.48754 16.1162C5.26388 14.5174 4.56913 12.5769 4.5 10.5648V10.5391Z" stroke="#84BB93" stroke-width="1.47781" stroke-linecap="round" stroke-linejoin="round"/>
<path d="M12.0642 13.1091C13.4033 13.1091 14.4888 12.0235 14.4888 10.6845C14.4888 9.34541 13.4033 8.25989 12.0642 8.25989C10.7252 8.25989 9.63965 9.34541 9.63965 10.6845C9.63965 12.0235 10.7252 13.1091 12.0642 13.1091Z" stroke="#84BB93" stroke-width="1.47781" stroke-linecap="round" stroke-linejoin="round"/>
</svg>
