<svg width="17" height="21" viewBox="0 0 17 21" fill="none" xmlns="http://www.w3.org/2000/svg">
<path d="M8.49984 10.4997C9.07275 10.4997 9.56338 10.2955 9.97171 9.88717C10.38 9.47884 10.5839 8.98856 10.5832 8.41634C10.5832 7.84343 10.379 7.3528 9.97067 6.94447C9.56234 6.53613 9.07206 6.33231 8.49984 6.33301C7.92692 6.33301 7.4363 6.53718 7.02796 6.94551C6.61963 7.35384 6.41581 7.84412 6.4165 8.41634C6.4165 8.98926 6.62067 9.47988 7.029 9.88822C7.43734 10.2966 7.92761 10.5004 8.49984 10.4997ZM8.49984 20.9163C5.7047 18.5379 3.6172 16.3288 2.23734 14.2893C0.857476 12.2497 0.167198 10.3615 0.166504 8.62467C0.166504 6.02051 1.00435 3.94586 2.68005 2.40072C4.35574 0.855577 6.29567 0.0830078 8.49984 0.0830078C10.7047 0.0830078 12.645 0.855577 14.3207 2.40072C15.9964 3.94586 16.8339 6.02051 16.8332 8.62467C16.8332 10.3608 16.1429 12.249 14.7623 14.2893C13.3818 16.3295 11.2943 18.5386 8.49984 20.9163Z" fill="#84BB93"/>
</svg>
