<svg width="21" height="21" viewBox="0 0 21 21" fill="none" xmlns="http://www.w3.org/2000/svg">
<path fill-rule="evenodd" clip-rule="evenodd" d="M10.554 1.00008C7.21952 0.986681 4.12129 2.71676 2.38748 5.56041C0.653662 8.40405 0.537273 11.9463 2.08069 14.8973L2.271 15.2682C2.42699 15.5601 2.45962 15.9022 2.36162 16.2182C2.09005 16.9395 1.86306 17.6768 1.68195 18.4258C1.68195 18.8058 1.79069 19.023 2.1985 19.0139C2.9208 18.8544 3.63214 18.6489 4.32815 18.3987C4.62792 18.3161 4.94665 18.3352 5.23438 18.453C5.49719 18.5797 6.03187 18.9054 6.04999 18.9054C9.54196 20.7415 13.8068 20.2349 16.7698 17.6321C19.7328 15.0293 20.7789 10.8706 19.3992 7.17891C18.0196 3.48726 14.5005 1.02908 10.554 1.00008Z" stroke="#84BB93" stroke-width="1.425" stroke-linecap="round" stroke-linejoin="round"/>
<path d="M6 12C6.55228 12 7 11.5523 7 11C7 10.4477 6.55228 10 6 10C5.44772 10 5 10.4477 5 11C5 11.5523 5.44772 12 6 12Z" fill="#84BB93" stroke="#84BB93" stroke-linecap="round" stroke-linejoin="round"/>
<path d="M10.77 12C11.3223 12 11.77 11.5523 11.77 11C11.77 10.4477 11.3223 10 10.77 10C10.2177 10 9.77002 10.4477 9.77002 11C9.77002 11.5523 10.2177 12 10.77 12Z" fill="#84BB93" stroke="#84BB93" stroke-linecap="round" stroke-linejoin="round"/>
<path d="M15.5391 12C16.0913 12 16.5391 11.5523 16.5391 11C16.5391 10.4477 16.0913 10 15.5391 10C14.9868 10 14.5391 10.4477 14.5391 11C14.5391 11.5523 14.9868 12 15.5391 12Z" fill="#84BB93" stroke="#84BB93" stroke-linecap="round" stroke-linejoin="round"/>
</svg>
