<svg width="12" height="16" viewBox="0 0 12 16" fill="none" xmlns="http://www.w3.org/2000/svg">
<path d="M6.00375 2.80802C5.75575 2.80802 5.54425 2.72102 5.36925 2.54702C5.19375 2.37352 5.106 2.16252 5.106 1.91402C5.106 1.71902 5.17 1.50977 5.298 1.28627C5.4265 1.06327 5.6605 0.762766 6 0.384766C6.3395 0.762766 6.57325 1.06327 6.70125 1.28627C6.82975 1.50927 6.894 1.71852 6.894 1.91402C6.894 2.16252 6.8075 2.37352 6.6345 2.54702C6.461 2.72102 6.2505 2.80802 6.003 2.80802M2.42625 2.80802C2.17875 2.80802 1.96725 2.72102 1.79175 2.54702C1.61625 2.37302 1.52875 2.16202 1.52925 1.91402C1.52925 1.71902 1.59325 1.50977 1.72125 1.28627C1.84975 1.06327 2.08375 0.762766 2.42325 0.384766C2.76225 0.762766 2.996 1.06327 3.1245 1.28627C3.253 1.50927 3.31725 1.71852 3.31725 1.91402C3.31725 2.16252 3.23075 2.37352 3.05775 2.54702C2.88425 2.72102 2.67375 2.80802 2.42625 2.80802ZM9.5805 2.80802C9.333 2.80802 9.1215 2.72102 8.946 2.54702C8.7705 2.37352 8.68275 2.16252 8.68275 1.91402C8.68275 1.71902 8.747 1.50977 8.8755 1.28627C9.0035 1.06327 9.23725 0.762766 9.57675 0.384766C9.91625 0.762766 10.1502 1.06327 10.2787 1.28627C10.4073 1.50927 10.4715 1.71852 10.4715 1.91402C10.4715 2.16252 10.3847 2.37352 10.2113 2.54702C10.0382 2.72102 9.828 2.80802 9.5805 2.80802ZM0.9225 14.0003V15.1253C0.9225 15.2318 0.8865 15.3208 0.8145 15.3923C0.7425 15.4638 0.65375 15.4998 0.54825 15.5003H0.375C0.2685 15.5003 0.1795 15.4643 0.108 15.3923C0.0365 15.3203 0.0005 15.2313 0 15.1253V9.61577L1.48875 5.37527C1.52525 5.25627 1.5955 5.16377 1.6995 5.09777C1.804 5.03277 1.92025 5.00027 2.04825 5.00027H10.0095C10.123 5.00027 10.2263 5.03477 10.3193 5.10377C10.4123 5.17277 10.4765 5.26327 10.512 5.37527L12 9.61577V15.1253C12 15.2318 11.964 15.3208 11.892 15.3923C11.82 15.4638 11.731 15.4998 11.625 15.5003H11.4525C11.346 15.5003 11.2568 15.4643 11.1847 15.3923C11.1128 15.3203 11.0767 15.2313 11.0767 15.1253V14.0003H0.9225ZM1.06125 8.86577H10.938L9.834 5.75027H2.16675L1.06125 8.86577ZM2.57025 12.2693C2.80325 12.2693 3.00025 12.1878 3.16125 12.0248C3.32275 11.8613 3.4035 11.6628 3.4035 11.4293C3.4035 11.1963 3.32175 10.9993 3.15825 10.8383C2.99475 10.6768 2.7965 10.596 2.5635 10.596C2.33 10.596 2.1325 10.6778 1.971 10.8413C1.8105 11.0048 1.73025 11.203 1.73025 11.436C1.73025 11.6695 1.81175 11.867 1.97475 12.0285C2.13825 12.189 2.33725 12.2693 2.57025 12.2693ZM9.43575 12.2693C9.66875 12.2693 9.86575 12.1878 10.0267 12.0248C10.1877 11.8613 10.2682 11.6628 10.2682 11.4293C10.2682 11.1963 10.1867 10.9993 10.0238 10.8383C9.86025 10.6768 9.662 10.596 9.429 10.596C9.1955 10.596 8.998 10.6778 8.8365 10.8413C8.676 11.0048 8.59575 11.203 8.59575 11.436C8.59575 11.6695 8.67725 11.867 8.84025 12.0285C9.00375 12.189 9.20225 12.2693 9.43575 12.2693ZM0.74925 13.2503H11.25V9.61577H0.74925V13.2503Z" fill="black"/>
</svg>
