<svg width="18" height="18" viewBox="0 0 18 18" fill="none" xmlns="http://www.w3.org/2000/svg">
<path d="M7.17147 0C7.03182 4.28891e-06 6.89577 0.0432049 6.78291 0.12338C6.67006 0.203556 6.58623 0.316569 6.54349 0.446143L5.81789 2.64343C5.51313 2.78871 5.22157 2.952 4.9432 3.13586L2.62654 2.64986C2.48995 2.62144 2.34763 2.636 2.22007 2.69146C2.09252 2.74691 1.98632 2.84039 1.91677 2.95843L0.0882397 6.04286C0.0184155 6.16083 -0.011158 6.29736 0.00377846 6.43277C0.0187168 6.56818 0.0773945 6.69547 0.171354 6.79629L1.76109 8.50629C1.73793 8.83418 1.73793 9.16325 1.76109 9.49114L0.171354 11.2037C0.0773945 11.3045 0.0187168 11.4318 0.00377846 11.5672C-0.011158 11.7026 0.0184155 11.8392 0.0882397 11.9571L1.91677 15.0429C1.98651 15.1607 2.09279 15.2539 2.22033 15.3091C2.34787 15.3643 2.49009 15.3787 2.62654 15.3501L4.9432 14.8641C5.22025 15.0467 5.51313 15.2113 5.81657 15.3566L6.54349 17.5539C6.58623 17.6834 6.67006 17.7964 6.78291 17.8766C6.89577 17.9568 7.03182 18 7.17147 18H10.8285C10.9682 18 11.1042 17.9568 11.2171 17.8766C11.3299 17.7964 11.4138 17.6834 11.4565 17.5539L12.1808 15.3579C12.4847 15.213 12.7779 15.0476 13.0581 14.8629L15.3735 15.3501C15.51 15.3786 15.6524 15.364 15.7799 15.3085C15.9075 15.2531 16.0137 15.1596 16.0832 15.0416L17.9118 11.9571C17.9816 11.8392 18.0112 11.7026 17.9962 11.5672C17.9813 11.4318 17.9226 11.3045 17.8286 11.2037L16.2389 9.49114C16.2619 9.1641 16.2619 8.8359 16.2389 8.50886L17.8286 6.79629C17.9226 6.69547 17.9813 6.56818 17.9962 6.43277C18.0112 6.29736 17.9816 6.16083 17.9118 6.04286L16.0832 2.95714C16.0135 2.83934 15.9072 2.74612 15.7797 2.69091C15.6521 2.63569 15.5099 2.62132 15.3735 2.64986L13.0581 3.13714C12.7784 2.95329 12.4855 2.78743 12.1808 2.64214L11.4552 0.446143C11.4126 0.316986 11.3292 0.204272 11.2168 0.124136C11.1045 0.043999 10.9691 0.000547287 10.8298 0H7.17279H7.17147ZM7.65433 1.28571H10.3457L11.095 3.55757L11.6003 3.798C11.8487 3.91646 12.0885 4.05134 12.318 4.20171L12.785 4.51029L15.1808 4.00629L16.5265 6.27943L14.884 8.05114L14.9236 8.59629C14.9425 8.86511 14.9425 9.13489 14.9236 9.40371L14.884 9.94886L16.5292 11.7206L15.1822 13.9937L12.7863 13.491L12.3193 13.7983C12.0898 13.9487 11.85 14.0835 11.6016 14.202L11.0963 14.4424L10.3457 16.7143H7.65169L6.8997 14.4411L6.39573 14.202C6.1476 14.0838 5.90823 13.9489 5.67936 13.7983L5.21366 13.491L2.81652 13.9937L1.47085 11.7206L3.11468 9.94886L3.0751 9.40371C3.05607 9.13446 3.05607 8.86425 3.0751 8.595L3.11468 8.04986L1.46953 6.27943L2.81652 4.00629L5.21366 4.50771L5.67936 4.20171C5.90823 4.05107 6.1476 3.91617 6.39573 3.798L6.8997 3.55886L7.65301 1.28571H7.65433ZM9 5.14286C7.95031 5.14286 6.94362 5.54923 6.20138 6.27259C5.45914 6.99594 5.04215 7.97702 5.04215 9C5.04215 10.023 5.45914 11.0041 6.20138 11.7274C6.94362 12.4508 7.95031 12.8571 9 12.8571C10.0497 12.8571 11.0564 12.4508 11.7986 11.7274C12.5409 11.0041 12.9578 10.023 12.9578 9C12.9578 7.97702 12.5409 6.99594 11.7986 6.27259C11.0564 5.54923 10.0497 5.14286 9 5.14286ZM9 6.42857C9.69979 6.42857 10.3709 6.69949 10.8657 7.18173C11.3606 7.66396 11.6386 8.31801 11.6386 9C11.6386 9.68198 11.3606 10.336 10.8657 10.8183C10.3709 11.3005 9.69979 11.5714 9 11.5714C8.30021 11.5714 7.62908 11.3005 7.13425 10.8183C6.63942 10.336 6.36143 9.68198 6.36143 9C6.36143 8.31801 6.63942 7.66396 7.13425 7.18173C7.62908 6.69949 8.30021 6.42857 9 6.42857Z" fill="white"/>
</svg>
