<svg width="14" height="14" viewBox="0 0 14 14" fill="none" xmlns="http://www.w3.org/2000/svg">
<path d="M3.4 8.8H4.6M10.6 8.8V10.6C10.6 11.7316 10.6 12.2968 10.3186 12.6484C10.0504 12.9844 9.6256 12.9994 8.8 13M10.6048 3.4H10.5988M4.6 13H3.4C2.2684 13 1.7032 13 1.3516 12.6484C1 12.2968 1 11.7316 1 10.6V9.4C1 8.2684 1 7.7032 1.3516 7.3516C1.7032 7 2.2684 7 3.4 7H4.6C5.7316 7 6.2968 7 6.6484 7.3516C7 7.7032 7 8.2684 7 9.4V10.6C7 11.7316 7 12.2968 6.6484 12.6484C6.2968 13 5.7316 13 4.6 13ZM10.6 1C9.274 1 8.2 2.0854 8.2 3.424C8.2 4.1896 8.5 4.7848 9.1 5.3164C9.523 5.6914 10.0354 6.3142 10.3426 6.8182C10.4902 7.0606 10.699 7.0606 10.8574 6.8182C11.1802 6.3238 11.677 5.6914 12.1 5.317C12.7 4.7848 13 4.1896 13 3.424C13 2.086 11.926 1 10.6 1Z" stroke="black" stroke-linecap="round" stroke-linejoin="round"/>
</svg>
