<svg width="93" height="93" viewBox="0 0 93 93" fill="none" xmlns="http://www.w3.org/2000/svg">
<g clip-path="url(#clip0_1131_2181)">
<path d="M46.5 20.6667L28.4167 0H0L36.1667 43.9167L65.9293 31.6458L46.5 20.6667Z" fill="#55ACEE"/>
<path d="M64.5833 0L46.5 20.6667L60.4242 39.556L63.5939 35.7094L93 0H64.5833Z" fill="#3B88C3"/>
<path d="M60.0882 41.4005C60.2948 40.8399 60.4266 40.2432 60.4266 39.6102C60.4266 38.24 59.8823 36.9258 58.9133 35.9569C57.9444 34.9879 56.6302 34.4436 55.2599 34.4436H38.0368C36.6666 34.4436 35.3524 34.9879 34.3835 35.9569C33.4145 36.9258 32.8702 38.24 32.8702 39.6102C32.8702 40.2432 32.9993 40.8399 33.2086 41.4005C24.7921 46.1177 19.0933 55.1102 19.0933 65.4436C19.0933 80.662 31.4287 93 46.6497 93C61.8681 93 74.2061 80.662 74.2061 65.4436C74.2035 55.1102 68.5073 46.1177 60.0882 41.4005Z" fill="#FFAC33"/>
<path d="M46.6501 86.1102C58.064 86.1102 67.3167 76.8575 67.3167 65.4436C67.3167 54.0297 58.064 44.7769 46.6501 44.7769C35.2362 44.7769 25.9834 54.0297 25.9834 65.4436C25.9834 76.8575 35.2362 86.1102 46.6501 86.1102Z" fill="#FFD983"/>
<path d="M54.9683 79.1379C54.592 79.1371 54.2253 79.0188 53.9195 78.7994L46.5001 73.4804L39.0834 78.7994C38.7761 79.0202 38.407 79.1386 38.0286 79.1377C37.6502 79.1368 37.2817 79.0168 36.9754 78.7946C36.6691 78.5724 36.4406 78.2593 36.3224 77.8999C36.2041 77.5404 36.2021 77.1528 36.3166 76.7922L39.0834 67.8642L31.7338 62.6846C31.4299 62.4597 31.2045 62.145 31.0892 61.7849C30.974 61.4249 30.9748 61.0377 31.0916 60.6782C31.2084 60.3186 31.4353 60.0049 31.7401 59.7813C32.045 59.5577 32.4124 59.4356 32.7904 59.4322L41.894 59.4193L44.7926 50.7134C44.9111 50.3535 45.1403 50.0401 45.4473 49.818C45.7544 49.5958 46.1237 49.4763 46.5027 49.4763C46.8817 49.4763 47.251 49.5958 47.5581 49.818C47.8652 50.0401 48.0943 50.3535 48.2129 50.7134L51.0623 59.4193L60.2125 59.4322C60.5913 59.434 60.9599 59.5552 61.2658 59.7785C61.5718 60.0019 61.7995 60.3161 61.9165 60.6764C62.0336 61.0367 62.034 61.4247 61.9178 61.7853C61.8015 62.1458 61.5745 62.4605 61.269 62.6846L53.9169 67.8642L56.6836 76.7922C56.7705 77.062 56.7923 77.3486 56.7471 77.6284C56.702 77.9083 56.5912 78.1734 56.4239 78.4022C56.2565 78.6311 56.0374 78.817 55.7844 78.9449C55.5314 79.0727 55.2518 79.1388 54.9683 79.1379Z" fill="#FFAC33"/>
</g>
<defs>
<clipPath id="clip0_1131_2181">
<rect width="93" height="93" fill="white"/>
</clipPath>
</defs>
</svg>
